<?xml version="1.0" encoding="UTF-8"?>
<svg version="1.1" xmlns="http://www.w3.org/2000/svg" width="64" height="64">
<path d="M0 0 C0.98152039 -0.01606293 1.96304077 -0.03212585 2.9743042 -0.04867554 C7.47016744 -0.09312124 11.96588245 -0.13419872 16.46191406 -0.15722656 C18.83245669 -0.17377882 21.20294956 -0.20105888 23.57324219 -0.23925781 C26.99082336 -0.29405729 30.40723378 -0.31590715 33.82519531 -0.33056641 C34.88164246 -0.35323578 35.9380896 -0.37590515 37.02655029 -0.39926147 C45.24685156 -0.37569496 45.24685156 -0.37569496 48.93164062 2.60058594 C51.9979854 5.98785693 52.40520548 7.47266933 52.47119141 11.91455078 C52.48725433 12.89607117 52.50331726 13.87759155 52.51986694 14.88885498 C52.56431264 19.38471822 52.60539012 23.88043323 52.62841797 28.37646484 C52.64497022 30.74700747 52.67225029 33.11750034 52.71044922 35.48779297 C52.76524869 38.90537414 52.78709855 42.32178456 52.80175781 45.73974609 C52.82442719 46.79619324 52.84709656 47.85264038 52.87045288 48.94110107 C52.84688636 57.16140234 52.84688636 57.16140234 49.87060547 60.84619141 C46.48333447 63.91253618 44.99852208 64.31975626 40.55664062 64.38574219 C39.08436005 64.40983658 39.08436005 64.40983658 37.58233643 64.43441772 C33.08647319 64.47886342 28.59075818 64.5199409 24.09472656 64.54296875 C21.72418394 64.55952101 19.35369107 64.58680107 16.98339844 64.625 C13.56581726 64.67979948 10.14940684 64.70164934 6.73144531 64.71630859 C5.67499817 64.73897797 4.61855103 64.76164734 3.53009033 64.78500366 C-4.69021094 64.76143714 -4.69021094 64.76143714 -8.375 61.78515625 C-11.44134477 58.39788525 -11.84856485 56.91307286 -11.91455078 52.47119141 C-11.93061371 51.48967102 -11.94667664 50.50815063 -11.96322632 49.49688721 C-12.00767202 45.00102397 -12.0487495 40.50530896 -12.07177734 36.00927734 C-12.0883296 33.63873472 -12.11560966 31.26824185 -12.15380859 28.89794922 C-12.20860807 25.48036804 -12.23045793 22.06395762 -12.24511719 18.64599609 C-12.26778656 17.58954895 -12.29045593 16.53310181 -12.31381226 15.44464111 C-12.29024574 7.22433984 -12.29024574 7.22433984 -9.31396484 3.53955078 C-5.92669385 0.47320601 -4.44188145 0.06598593 0 0 Z " fill="#FDF100" transform="translate(11.7216796875,-0.19287109375)"/>
<path d="M0 0 C2.64 0 5.28 0 8 0 C8.02887814 3.47914941 8.04675687 6.95826831 8.0625 10.4375 C8.07087891 11.43072266 8.07925781 12.42394531 8.08789062 13.44726562 C8.09111328 14.39150391 8.09433594 15.33574219 8.09765625 16.30859375 C8.10289307 17.18314209 8.10812988 18.05769043 8.11352539 18.95874023 C8 21 8 21 7 22 C2.33154772 22.14426614 -2.32865953 22.04208415 -7 22 C-7 17.05 -7 12.1 -7 7 C-4.69 7 -2.38 7 0 7 C0 4.69 0 2.38 0 0 Z " fill="#1C1D04" transform="translate(53,32)"/>
<path d="M0 0 C2.64 0 5.28 0 8 0 C8 2.31 8 4.62 8 7 C10.31 7 12.62 7 15 7 C15 11.95 15 16.9 15 22 C4.16015625 22.09765625 4.16015625 22.09765625 1 22 C0 21 0 21 -0.11352539 18.95874023 C-0.10828857 18.08419189 -0.10305176 17.20964355 -0.09765625 16.30859375 C-0.09443359 15.36435547 -0.09121094 14.42011719 -0.08789062 13.44726562 C-0.07951172 12.45404297 -0.07113281 11.46082031 -0.0625 10.4375 C-0.05798828 9.44041016 -0.05347656 8.44332031 -0.04882812 7.41601562 C-0.03700007 4.94395151 -0.02051849 2.47200482 0 0 Z " fill="#1C1D04" transform="translate(3,32)"/>
<path d="M0 0 C4.62 0 9.24 0 14 0 C14 2.64 14 5.28 14 8 C9.38 8 4.76 8 0 8 C0 5.36 0 2.72 0 0 Z " fill="#A2800A" transform="translate(25,53)"/>
<path d="M0 0 C2.33294775 -0.04241723 4.66702567 -0.04092937 7 0 C8 1 8 1 8.0625 4.5625 C8.041875 5.696875 8.02125 6.83125 8 8 C5.36 8 2.72 8 0 8 C0 5.36 0 2.72 0 0 Z " fill="#A87A0F" transform="translate(46,10)"/>
<path d="M0 0 C1.134375 0.020625 2.26875 0.04125 3.4375 0.0625 C3.4375 2.7025 3.4375 5.3425 3.4375 8.0625 C0.7975 8.0625 -1.8425 8.0625 -4.5625 8.0625 C-4.60491723 5.72955225 -4.60342937 3.39547433 -4.5625 1.0625 C-3.5625 0.0625 -3.5625 0.0625 0 0 Z " fill="#A87A0F" transform="translate(14.5625,9.9375)"/>
<path d="M0 0 C2.31 0 4.62 0 7 0 C7 2.31 7 4.62 7 7 C4.69 7 2.38 7 0 7 C0 4.69 0 2.38 0 0 Z " fill="#8FF4DE" transform="translate(46,32)"/>
<path d="M0 0 C2.31 0 4.62 0 7 0 C7 2.31 7 4.62 7 7 C4.69 7 2.38 7 0 7 C0 4.69 0 2.38 0 0 Z " fill="#8FF4DE" transform="translate(11,32)"/>
</svg>
